<?xml version="1.0" encoding="UTF-8" standalone="no"?>
<!-- Created with Inkscape (http://www.inkscape.org/) -->

<svg
   xmlns:dc="http://purl.org/dc/elements/1.1/"
   xmlns:cc="http://creativecommons.org/ns#"
   xmlns:rdf="http://www.w3.org/1999/02/22-rdf-syntax-ns#"
   xmlns:svg="http://www.w3.org/2000/svg"
   xmlns="http://www.w3.org/2000/svg"
   xmlns:sodipodi="http://sodipodi.sourceforge.net/DTD/sodipodi-0.dtd"
   xmlns:inkscape="http://www.inkscape.org/namespaces/inkscape"
   width="24"
   height="24"
   id="svg2"
   version="1.1"
   inkscape:version="0.48.1 "
   sodipodi:docname="level_item_status.svg"
   inkscape:export-filename="D:\.diamond-jack\DiamondJack\res\drawable-mdpi\level_item_status_time.png"
   inkscape:export-xdpi="90"
   inkscape:export-ydpi="90"
   style="display:inline">
  <defs
     id="defs4" />
  <sodipodi:namedview
     id="base"
     pagecolor="#ffffff"
     bordercolor="#666666"
     borderopacity="1.0"
     inkscape:pageopacity="0.0"
     inkscape:pageshadow="2"
     inkscape:zoom="6.1061616"
     inkscape:cx="8.4680337"
     inkscape:cy="12"
     inkscape:document-units="px"
     inkscape:current-layer="g3824"
     showgrid="false"
     inkscape:window-width="1920"
     inkscape:window-height="1018"
     inkscape:window-x="-8"
     inkscape:window-y="-8"
     inkscape:window-maximized="1" />
  <metadata
     id="metadata7">
    <rdf:RDF>
      <cc:Work
         rdf:about="">
        <dc:format>image/svg+xml</dc:format>
        <dc:type
           rdf:resource="http://purl.org/dc/dcmitype/StillImage" />
        <dc:title></dc:title>
      </cc:Work>
    </rdf:RDF>
  </metadata>
  <g
     inkscape:label="new!"
     inkscape:groupmode="layer"
     id="layer1"
     transform="translate(0,-1028.3622)"
     style="display:none"
     sodipodi:insensitive="true">
    <rect
       style="fill:#296ad4;fill-opacity:1;stroke:none"
       id="rect2985"
       width="24"
       height="20"
       x="0"
       y="1030.3622"
       rx="2"
       ry="2" />
    <text
       xml:space="preserve"
       style="font-size:11.16462326px;font-style:oblique;font-variant:normal;font-weight:bold;font-stretch:normal;line-height:125%;letter-spacing:0px;word-spacing:0px;fill:#ffffff;fill-opacity:1;stroke:none;font-family:Trebuchet MS;-inkscape-font-specification:Trebuchet MS Bold Oblique"
       x="1.5765035"
       y="1011.4753"
       id="text3755"
       sodipodi:linespacing="125%"
       transform="scale(0.96941467,1.0315503)"><tspan
         sodipodi:role="line"
         id="tspan3757"
         x="1.5765035"
         y="1011.4753">new</tspan></text>
  </g>
  <g
     transform="translate(0,-1028.3622)"
     id="g2985"
     inkscape:groupmode="layer"
     inkscape:label="selected"
     style="display:none"
     sodipodi:insensitive="true">
    <rect
       ry="2"
       rx="2"
       y="1030.3622"
       x="0"
       height="20"
       width="24"
       id="rect2987"
       style="fill:none;stroke:none" />
    <path
       sodipodi:type="star"
       style="fill:#ffffff;fill-opacity:1;stroke:#ffffff;stroke-width:1.35054612;stroke-linecap:round;stroke-linejoin:round;stroke-miterlimit:4;stroke-opacity:1;stroke-dasharray:none"
       id="path2993"
       sodipodi:sides="3"
       sodipodi:cx="8.0328798"
       sodipodi:cy="8.9493837"
       sodipodi:r1="8.2095451"
       sodipodi:r2="4.1047721"
       sodipodi:arg1="0"
       sodipodi:arg2="1.0471976"
       inkscape:flatsided="false"
       inkscape:rounded="0"
       inkscape:randomized="0"
       d="m 16.242425,8.9493837 -6.157159,3.5548373 -6.1571587,3.554837 4e-7,-7.1096745 -4e-7,-7.1096744 6.1571587,3.5548378 z"
       transform="matrix(0.64965028,0,0,0.84392047,5.948104,1032.8096)"
       inkscape:transform-center-x="-1.3333334"
       inkscape:transform-center-y="1.3851081e-005" />
  </g>
  <g
     inkscape:label="skull"
     inkscape:groupmode="layer"
     id="g3899"
     transform="translate(0,-1028.3622)"
     style="display:none"
     sodipodi:insensitive="true">
    <rect
       style="fill:#ff5555;fill-opacity:1;stroke:none"
       id="rect3901"
       width="24"
       height="20"
       x="0"
       y="1030.3622"
       rx="2"
       ry="2" />
    <path
       style="fill:#ffffff;fill-opacity:1;stroke:none"
       d="m 12,1032.5949 c -3.4116623,0 -6.1854045,2.7737 -6.1854045,6.1854 0,2.0466 1.001589,3.8618 2.536871,4.9882 l 0,4.3611 1.3682,0 0,-2.4228 0.9121335,0 0,2.4228 0.912134,0 0,-2.4228 0.912133,0 0,2.4228 0.912134,0 0,-2.4228 0.912133,0 0,2.4228 1.3682,0 0,-4.3611 c 1.535282,-1.1264 2.53687,-2.9416 2.53687,-4.9882 0,-3.4117 -2.773741,-6.1854 -6.185404,-6.1854 z m -2.878921,5.5012 c 0.881575,0 1.596234,0.7146 1.596234,1.5962 0,0.8816 -0.714659,1.5962 -1.596234,1.5962 -0.8815754,0 -1.5962334,-0.7146 -1.5962334,-1.5962 0,-0.8816 0.714658,-1.5962 1.5962334,-1.5962 z m 5.757842,0 c 0.881576,0 1.596233,0.7146 1.596233,1.5962 0,0.8816 -0.714658,1.5962 -1.596233,1.5962 -0.881575,0 -1.596233,-0.7146 -1.596233,-1.5962 0,-0.8816 0.714658,-1.5962 1.596233,-1.5962 z M 12,1041.3171 l 0.684101,1.3682 0.6841,1.3682 -1.368201,0 -1.3682,0 0.6841,-1.3682 0.6841,-1.3682 z"
       id="path3903"
       inkscape:connector-curvature="0" />
  </g>
  <g
     style="display:none"
     transform="translate(0,-1028.3622)"
     id="g3923"
     inkscape:groupmode="layer"
     inkscape:label="completed"
     sodipodi:insensitive="true">
    <rect
       ry="2"
       rx="2"
       y="1030.3622"
       x="0"
       height="20"
       width="24"
       id="rect3925"
       style="fill:#1e7800;fill-opacity:1;stroke:none" />
    <path
       style="font-size:medium;font-style:normal;font-variant:normal;font-weight:normal;font-stretch:normal;text-indent:0;text-align:start;text-decoration:none;line-height:normal;letter-spacing:normal;word-spacing:normal;text-transform:none;direction:ltr;block-progression:tb;writing-mode:lr-tb;text-anchor:start;baseline-shift:baseline;color:#000000;fill:#ffffff;fill-opacity:1;stroke:none;stroke-width:3;marker:none;visibility:visible;display:inline;overflow:visible;enable-background:accumulate;font-family:Sans;-inkscape-font-specification:Sans"
       d="m 16.6875,1032.6622 -6.25,9.9041 -3.125,-4.9806 -2.59375,1.3739 4.4375,7.0416 1.28125,2.061 1.3125,-2.061 7.53125,-11.965 -2.59375,-1.374 z"
       id="path3929"
       inkscape:connector-curvature="0" />
  </g>
  <g
     style="display:inline"
     transform="translate(0,-1028.3622)"
     id="g3824"
     inkscape:groupmode="layer"
     inkscape:label="time"
     sodipodi:insensitive="true">
    <rect
       ry="2"
       rx="2"
       y="1030.3622"
       x="0"
       height="20"
       width="24"
       id="rect3826"
       style="fill:#d96b00;fill-opacity:1;stroke:none" />
    <path
       style="fill:#ffffff;fill-opacity:1;stroke:none"
       d="m 12,4 c -4.418278,0 -8,3.581722 -8,8 0,4.418278 3.581722,8 8,8 4.418278,0 8,-3.581722 8,-8 0,-4.418278 -3.581722,-8 -8,-8 z m -1,2 2,0 0,5 5,0 0,2 -5,0 -2,0 0,-2 0,-5 z"
       transform="translate(0,1028.3622)"
       id="path3830"
       inkscape:connector-curvature="0" />
  </g>
</svg>
