<?xml version="1.0" encoding="UTF-8" standalone="no"?>
<!-- Created with Inkscape (http://www.inkscape.org/) -->

<svg
   xmlns:dc="http://purl.org/dc/elements/1.1/"
   xmlns:cc="http://creativecommons.org/ns#"
   xmlns:rdf="http://www.w3.org/1999/02/22-rdf-syntax-ns#"
   xmlns:svg="http://www.w3.org/2000/svg"
   xmlns="http://www.w3.org/2000/svg"
   xmlns:xlink="http://www.w3.org/1999/xlink"
   xmlns:sodipodi="http://sodipodi.sourceforge.net/DTD/sodipodi-0.dtd"
   xmlns:inkscape="http://www.inkscape.org/namespaces/inkscape"
   width="48"
   height="48"
   id="svg2"
   version="1.1"
   inkscape:version="0.48.0 r9654"
   sodipodi:docname="tabs_icons.svg"
   inkscape:export-filename="D:\temp\dj\res\drawable-mdpi\tab_news_selected.png"
   inkscape:export-xdpi="60"
   inkscape:export-ydpi="60"
   style="display:inline">
  <defs
     id="defs4">
    <filter
       id="filter3933"
       inkscape:label="Glow"
       inkscape:menu="Shadows and Glows"
       inkscape:menu-tooltip="Glow of object's own color at the edges"
       color-interpolation-filters="sRGB"
       width="1.2"
       x="-0.1">
      <feGaussianBlur
         id="feGaussianBlur3935"
         stdDeviation="3"
         result="result91" />
      <feComposite
         id="feComposite3937"
         in2="result91"
         in="SourceGraphic"
         operator="over" />
    </filter>
    <filter
       inkscape:collect="always"
       id="filter4330"
       color-interpolation-filters="sRGB">
      <feGaussianBlur
         inkscape:collect="always"
         stdDeviation="1.68"
         id="feGaussianBlur4332" />
    </filter>
    <filter
       inkscape:collect="always"
       id="filter4427"
       color-interpolation-filters="sRGB">
      <feGaussianBlur
         inkscape:collect="always"
         stdDeviation="1.68"
         id="feGaussianBlur4429" />
    </filter>
    <filter
       inkscape:collect="always"
       id="filter3819"
       color-interpolation-filters="sRGB">
      <feGaussianBlur
         inkscape:collect="always"
         stdDeviation="1.68"
         id="feGaussianBlur3821" />
    </filter>
    <filter
       inkscape:collect="always"
       id="filter3912"
       color-interpolation-filters="sRGB">
      <feGaussianBlur
         inkscape:collect="always"
         stdDeviation="1.68"
         id="feGaussianBlur3914" />
    </filter>
    <filter
       inkscape:collect="always"
       id="filter3920"
       color-interpolation-filters="sRGB">
      <feGaussianBlur
         inkscape:collect="always"
         stdDeviation="1.68"
         id="feGaussianBlur3922" />
    </filter>
    <filter
       inkscape:collect="always"
       id="filter3928"
       color-interpolation-filters="sRGB">
      <feGaussianBlur
         inkscape:collect="always"
         stdDeviation="1.68"
         id="feGaussianBlur3930" />
    </filter>
    <filter
       inkscape:collect="always"
       id="filter3976">
      <feGaussianBlur
         inkscape:collect="always"
         stdDeviation="1.68"
         id="feGaussianBlur3978" />
    </filter>
    <linearGradient
       y2="7.9203749"
       x2="13.521685"
       y1="7.5330076"
       x1="-7.836822"
       gradientTransform="matrix(1.1150821,0.02153964,0.02153964,1.107913,-0.66103132,-0.87006361)"
       gradientUnits="userSpaceOnUse"
       id="linearGradient4063"
       xlink:href="#linearGradient3937-5"
       inkscape:collect="always" />
    <linearGradient
       id="linearGradient3937-5">
      <stop
         style="stop-color:#4cffd3;stop-opacity:1;"
         offset="0"
         id="stop3939-1" />
      <stop
         style="stop-color:#00805e;stop-opacity:1;"
         offset="1"
         id="stop3941-2" />
    </linearGradient>
    <linearGradient
       y2="7.9203749"
       x2="13.521685"
       y1="7.5330076"
       x1="-7.836822"
       gradientTransform="matrix(1.1150821,0.02153964,0.02153964,1.107913,-0.66103132,-0.87006361)"
       gradientUnits="userSpaceOnUse"
       id="linearGradient3077-8"
       xlink:href="#linearGradient3937-5-1"
       inkscape:collect="always" />
    <linearGradient
       id="linearGradient3937-5-1">
      <stop
         style="stop-color:#4cffd3;stop-opacity:1;"
         offset="0"
         id="stop3939-1-5" />
      <stop
         style="stop-color:#00805e;stop-opacity:1;"
         offset="1"
         id="stop3941-2-5" />
    </linearGradient>
    <filter
       inkscape:collect="always"
       id="filter3881">
      <feGaussianBlur
         inkscape:collect="always"
         stdDeviation="1.68"
         id="feGaussianBlur3883" />
    </filter>
  </defs>
  <sodipodi:namedview
     id="base"
     pagecolor="#ffffff"
     bordercolor="#666666"
     borderopacity="1.0"
     inkscape:pageopacity="0.0"
     inkscape:pageshadow="2"
     inkscape:zoom="11.32844"
     inkscape:cx="14.422335"
     inkscape:cy="20.388199"
     inkscape:document-units="px"
     inkscape:current-layer="g3109"
     showgrid="false"
     inkscape:window-width="1680"
     inkscape:window-height="988"
     inkscape:window-x="-8"
     inkscape:window-y="-8"
     inkscape:window-maximized="1" />
  <metadata
     id="metadata7">
    <rdf:RDF>
      <cc:Work
         rdf:about="">
        <dc:format>image/svg+xml</dc:format>
        <dc:type
           rdf:resource="http://purl.org/dc/dcmitype/StillImage" />
        <dc:title></dc:title>
      </cc:Work>
    </rdf:RDF>
  </metadata>
  <g
     inkscape:groupmode="layer"
     id="layer3"
     inkscape:label="test bkg black"
     style="display:none"
     sodipodi:insensitive="true">
    <rect
       style="fill:#000000;fill-opacity:1;stroke:none"
       id="rect3891"
       width="48"
       height="48"
       x="0"
       y="0" />
  </g>
  <g
     style="display:none"
     inkscape:label="test bkg gray"
     id="g4271"
     inkscape:groupmode="layer"
     sodipodi:insensitive="true">
    <rect
       y="0"
       x="0"
       height="48"
       width="48"
       id="rect4273"
       style="fill:#808080;fill-opacity:1;stroke:none" />
  </g>
  <g
     inkscape:groupmode="layer"
     id="layer2"
     inkscape:label="icon bounds"
     style="display:none"
     sodipodi:insensitive="true">
    <rect
       style="fill:#7a4e87;fill-opacity:1;stroke:none"
       id="rect3768"
       width="42"
       height="42"
       x="3"
       y="3" />
  </g>
  <g
     sodipodi:insensitive="true"
     inkscape:groupmode="layer"
     id="g3120"
     inkscape:label="icon template"
     style="display:none">
    <rect
       ry="6"
       rx="6"
       style="fill:#808080;fill-opacity:1;stroke:none"
       id="rect3122"
       width="42"
       height="42"
       x="3"
       y="3" />
  </g>
  <g
     style="display:none"
     inkscape:label="levels - selected"
     id="g3929"
     inkscape:groupmode="layer"
     sodipodi:insensitive="true">
    <path
       inkscape:connector-curvature="0"
       id="path3931-4"
       d="m 9.0000002,2.9999997 c -3.3240001,0 -6,2.676 -6,5.9999999 l 0,30.0000004 c 0,3.324 2.6759999,6 6,6 L 39,45 c 3.324,0 6,-2.676 6,-6 L 45,8.9999996 C 45,5.6759997 42.324,2.9999997 39,2.9999997 l -29.9999999,0 z M 20,7.9999996 l 8,0 0,7.9999994 -8,0 0,-7.9999994 z m -6,11.9999994 8,0 L 22,28 l -8,0 0,-8.000001 z m 12,0 8,0 L 34,28 26,28 26,19.999999 z M 8.0000002,32 16,32 l 0,8 -7.9999998,0 0,-8 z M 20,32 l 8,0 0,8 -8,0 0,-8 z m 12,0 8,0 0,8 -8,0 0,-8 z"
       style="opacity:0.5;fill:#000000;fill-opacity:1;stroke:none;display:inline;filter:url(#filter4330)" />
    <path
       inkscape:connector-curvature="0"
       id="path3931"
       d="M 9,3 C 5.676,3 3,5.676 3,9 l 0,30 c 0,3.324 2.676,6 6,6 l 30,0 c 3.324,0 6,-2.676 6,-6 L 45,9 C 45,5.676 42.324,3 39,3 L 9,3 z m 11,5 8,0 0,8 -8,0 0,-8 z m -6,12 8,0 0,8 -8,0 0,-8 z m 12,0 8,0 0,8 -8,0 0,-8 z m -18,12 8,0 0,8 -8,0 0,-8 z m 12,0 8,0 0,8 -8,0 0,-8 z m 12,0 8,0 0,8 -8,0 0,-8 z"
       style="fill:#ffffff;fill-opacity:1;stroke:none" />
  </g>
  <g
     style="display:none"
     inkscape:label="levels - unselected"
     id="g3883"
     inkscape:groupmode="layer"
     sodipodi:insensitive="true">
    <path
       style="fill:#808080;fill-opacity:1;stroke:none"
       d="M 9,3 C 5.676,3 3,5.676 3,9 l 0,30 c 0,3.324 2.676,6 6,6 l 30,0 c 3.324,0 6,-2.676 6,-6 L 45,9 C 45,5.676 42.324,3 39,3 L 9,3 z m 11,5 8,0 0,8 -8,0 0,-8 z m -6,12 8,0 0,8 -8,0 0,-8 z m 12,0 8,0 0,8 -8,0 0,-8 z m -18,12 8,0 0,8 -8,0 0,-8 z m 12,0 8,0 0,8 -8,0 0,-8 z m 12,0 8,0 0,8 -8,0 0,-8 z"
       id="rect3885"
       inkscape:connector-curvature="0" />
  </g>
  <g
     style="display:none"
     inkscape:label="maps - selected"
     id="g4338"
     inkscape:groupmode="layer"
     sodipodi:insensitive="true">
    <path
       inkscape:connector-curvature="0"
       style="opacity:0.5;fill:#000000;fill-opacity:1;stroke:none;display:inline;filter:url(#filter4427)"
       d="M 9,3 C 5.676,3 3,5.6759997 3,8.9999997 L 3,39 c 0,3.324 2.676,6 6,6 l 30,0 c 3.324,0 6,-2.676 6,-6 L 45,8.9999997 C 45,5.6759997 42.324,3 39,3 L 9,3 z m 15,4.9999997 c 4.950854,0 8.96875,4.0178953 8.96875,8.9687503 C 32.96875,21.919605 24,40 24,40 24,40 15.03125,21.919286 15.03125,16.96875 15.03125,12.018216 19.049465,7.9999997 24,7.9999997 z M 24,13 c -2.197076,0 -3.96875,1.771353 -3.96875,3.96875 0,2.196756 1.771674,4 3.96875,4 2.197395,0 3.96907,-1.803244 3.96875,-4 C 27.96875,14.771353 26.197395,13 24,13 z"
       id="rect4340-8-5" />
    <path
       style="fill:#ffffff;fill-opacity:1;stroke:none;display:inline"
       d="M 9,3 C 5.676,3 3,5.676 3,9 l 0,30 c 0,3.324 2.676,6 6,6 l 30,0 c 3.324,0 6,-2.676 6,-6 L 45,9 C 45,5.676 42.324,3 39,3 L 9,3 z m 15,5 c 4.950854,0 8.96875,4.017895 8.96875,8.96875 C 32.96875,21.919605 24,40 24,40 24,40 15.03125,21.919286 15.03125,16.96875 15.03125,12.018216 19.049465,8 24,8 z m 0,5 c -2.197076,0 -3.96875,1.771353 -3.96875,3.96875 0,2.196756 1.771674,4 3.96875,4 2.197395,0 3.96907,-1.803244 3.96875,-4 C 27.96875,14.771353 26.197395,13 24,13 z"
       id="rect4340-8"
       inkscape:connector-curvature="0" />
  </g>
  <g
     inkscape:groupmode="layer"
     id="g4349"
     inkscape:label="maps - unselected"
     style="display:none"
     sodipodi:insensitive="true">
    <path
       style="fill:#808080;fill-opacity:1;stroke:none"
       d="M 9,3 C 5.676,3 3,5.676 3,9 l 0,30 c 0,3.324 2.676,6 6,6 l 30,0 c 3.324,0 6,-2.676 6,-6 L 45,9 C 45,5.676 42.324,3 39,3 L 9,3 z m 15,5 c 4.950854,0 8.96875,4.017895 8.96875,8.96875 C 32.96875,21.919605 24,40 24,40 24,40 15.03125,21.919286 15.03125,16.96875 15.03125,12.018216 19.049465,8 24,8 z m 0,5 c -2.197076,0 -3.96875,1.771353 -3.96875,3.96875 0,2.196756 1.771674,4 3.96875,4 2.197395,0 3.96907,-1.803244 3.96875,-4 C 27.96875,14.771353 26.197395,13 24,13 z"
       id="rect4351"
       inkscape:connector-curvature="0" />
  </g>
  <g
     inkscape:groupmode="layer"
     id="g3013"
     inkscape:label="worlds - selected"
     style="display:none"
     sodipodi:insensitive="true">
    <path
       style="opacity:0.5;fill:#000000;fill-opacity:1;stroke:none;filter:url(#filter3819)"
       d="M 9,3 C 5.676,3 3,5.676 3,9 l 0,30 c 0,3.324 2.676,6 6,6 l 30,0 c 3.324,0 6,-2.676 6,-6 L 45,9 C 45,5.676 42.324,3 39,3 L 9,3 z m 15,4.53125 c 8.989536,0 16.28125,7.375105 16.28125,16.46875 0,9.092328 -7.291714,16.46875 -16.28125,16.46875 C 15.010462,40.46875 7.71875,33.092328 7.71875,24 7.71875,14.906355 15.010462,7.53125 24,7.53125 z M 25.0625,9.875 c 1.10895,1.133657 2.072958,2.280355 2.96875,3.5 1.073696,1.489801 1.920195,2.932487 2.6875,4.6875 0.717883,1.656834 1.353617,3.525105 1.78125,5.375 0.538332,-0.399301 1.019702,-0.778694 1.46875,-1.15625 1.353075,-1.18044 2.370314,-2.297253 3.0625,-3.4375 C 35.115134,13.897626 30.522906,10.30461 25.0625,9.875 z M 21.875,9.96875 c -1.087863,0.165715 -2.134327,0.471745 -3.125,0.875 -0.525811,1.300363 -0.908876,2.698872 -1.125,4.28125 -0.287936,1.83408 -0.431627,3.795938 -0.1875,6 0.243797,2.197141 0.773735,4.747791 1.59375,7.03125 0.103779,0.296181 0.225475,0.608421 0.34375,0.90625 0.652322,-0.08533 1.339062,-0.186938 2.03125,-0.34375 2.110494,-0.555792 4.550319,-1.397972 6.6875,-2.5 C 28.798785,25.853053 29.520303,25.440154 30.21875,25 29.788482,22.762993 29.072274,20.411125 28.28125,18.53125 27.400615,16.519592 26.352409,14.802863 25.21875,13.375 24.164162,12.004793 23.076197,10.891886 21.875,9.96875 z M 15.9375,12.375 c -3.615779,2.564814 -6,6.822848 -6,11.625 0,1.587647 0.273277,3.105036 0.75,4.53125 1.461466,0.438507 3.035792,0.67724 4.78125,0.71875 0.415443,0.0078 0.853617,0.0081 1.28125,0 -0.166374,-0.450036 -0.319176,-0.901572 -0.46875,-1.375 -0.593021,-1.886464 -1.013213,-4.059271 -1.1875,-5.9375 -0.200642,-1.91381 -0.173063,-3.563273 0.0625,-5.40625 0.148583,-1.380091 0.419178,-2.758698 0.78125,-4.15625 z m 21.84375,9.21875 c -1.544489,1.725361 -3.091287,3.188533 -4.6875,4.4375 -0.04841,0.03756 -0.07657,0.05784 -0.125,0.09375 0.133767,1.130034 0.17701,2.277718 0.15625,3.5 -0.02965,1.766542 -0.222832,3.637439 -0.5625,5.59375 C 35.869909,32.624283 38,28.557366 38,24 38,23.180313 37.913366,22.376208 37.78125,21.59375 z M 30.5625,27.75 c -0.779163,0.464863 -1.555926,0.87569 -2.40625,1.28125 -1.80542,0.802884 -3.847159,1.474003 -5.6875,1.90625 -0.72085,0.154515 -1.416058,0.28077 -2.09375,0.375 0.58215,1.18769 1.212891,2.317638 1.8125,3.25 1.010114,1.560303 2.021042,2.725681 3.09375,3.5625 1.620924,-0.150562 3.148474,-0.588453 4.5625,-1.25 0.436858,-1.189665 0.688952,-2.595094 0.8125,-4.28125 0.08993,-1.407437 0.05087,-3.13552 -0.09375,-4.84375 z m -18.71875,3.375 c 2.120047,3.677057 5.843292,6.29379 10.1875,6.90625 -1.358017,-1.622571 -2.49888,-3.232379 -3.4375,-4.84375 -0.331104,-0.566663 -0.607481,-1.109681 -0.875,-1.65625 -0.184495,0.007 -0.374053,0.02785 -0.5625,0.03125 -1.729645,0 -3.480397,-0.126823 -5.3125,-0.4375 z"
       id="rect3015"
       inkscape:connector-curvature="0" />
    <path
       style="fill:#ffffff;fill-opacity:1;stroke:none;display:inline"
       d="m 50.269788,0.37969599 c -3.324,0 -6,2.67599961 -6,5.99999961 l 0,30.0000004 c 0,3.324 2.676,6 6,6 l 30,0 c 3.324,0 6,-2.676 6,-6 l 0,-30.0000004 c 0,-3.324 -2.676,-5.99999961 -6,-5.99999961 l -30,0 z m 15,4.53124961 c 8.989536,0 16.28125,7.3751054 16.28125,16.4687504 0,9.092328 -7.291714,16.46875 -16.28125,16.46875 -8.989538,0 -16.28125,-7.376422 -16.28125,-16.46875 0,-9.093645 7.291712,-16.4687504 16.28125,-16.4687504 z m 1.0625,2.34375 c 1.10895,1.1336574 2.072958,2.2803554 2.96875,3.5000004 1.073696,1.489801 1.920195,2.932487 2.6875,4.6875 0.717883,1.656834 1.353617,3.525105 1.78125,5.375 0.538332,-0.399301 1.019702,-0.778694 1.46875,-1.15625 1.353075,-1.18044 2.370314,-2.297253 3.0625,-3.4375 -1.916116,-4.946124 -6.508344,-8.53914 -11.96875,-8.9687504 z m -3.1875,0.09375 c -1.087863,0.1657154 -2.134327,0.4717454 -3.125,0.8750004 -0.525811,1.300363 -0.908876,2.698872 -1.125,4.28125 -0.287936,1.83408 -0.431627,3.795938 -0.1875,6 0.243797,2.197141 0.773735,4.747791 1.59375,7.03125 0.103779,0.296181 0.225475,0.608421 0.34375,0.90625 0.652322,-0.08533 1.339062,-0.186938 2.03125,-0.34375 2.110494,-0.555792 4.550319,-1.397972 6.6875,-2.5 0.705035,-0.365697 1.426553,-0.778596 2.125,-1.21875 -0.430268,-2.237007 -1.146476,-4.588875 -1.9375,-6.46875 -0.880635,-2.011658 -1.928841,-3.728387 -3.0625,-5.15625 C 65.43395,9.384489 64.345985,8.271582 63.144788,7.3484456 z m -5.9375,2.4062504 c -3.615779,2.564814 -6,6.822848 -6,11.625 0,1.587647 0.273277,3.105036 0.75,4.53125 1.461466,0.438507 3.035792,0.67724 4.78125,0.71875 0.415443,0.0078 0.853617,0.0081 1.28125,0 -0.166374,-0.450036 -0.319176,-0.901572 -0.46875,-1.375 -0.593021,-1.886464 -1.013213,-4.059271 -1.1875,-5.9375 -0.200642,-1.91381 -0.173063,-3.563273 0.0625,-5.40625 0.148583,-1.380091 0.419178,-2.758698 0.78125,-4.15625 z m 21.84375,9.21875 c -1.544489,1.725361 -3.091287,3.188533 -4.6875,4.4375 -0.04841,0.03756 -0.07657,0.05784 -0.125,0.09375 0.133767,1.130034 0.17701,2.277718 0.15625,3.5 -0.02965,1.766542 -0.222832,3.637439 -0.5625,5.59375 3.307409,-2.594467 5.4375,-6.661384 5.4375,-11.21875 0,-0.819687 -0.08663,-1.623792 -0.21875,-2.40625 z m -7.21875,6.15625 c -0.779163,0.464863 -1.555926,0.87569 -2.40625,1.28125 -1.80542,0.802884 -3.847159,1.474003 -5.6875,1.90625 -0.72085,0.154515 -1.416058,0.28077 -2.09375,0.375 0.58215,1.18769 1.212891,2.317638 1.8125,3.25 1.010114,1.560303 2.021042,2.725681 3.09375,3.5625 1.620924,-0.150562 3.148474,-0.588453 4.5625,-1.25 0.436858,-1.189665 0.688952,-2.595094 0.8125,-4.28125 0.08993,-1.407437 0.05087,-3.13552 -0.09375,-4.84375 z m -18.71875,3.375 c 2.120047,3.677057 5.843292,6.29379 10.1875,6.90625 -1.358017,-1.622571 -2.49888,-3.232379 -3.4375,-4.84375 -0.331104,-0.566663 -0.607481,-1.109681 -0.875,-1.65625 -0.184495,0.007 -0.374053,0.02785 -0.5625,0.03125 -1.729645,0 -3.480397,-0.126823 -5.3125,-0.4375 z"
       id="rect3015-1"
       inkscape:connector-curvature="0" />
  </g>
  <g
     style="display:none"
     inkscape:label=" level private tests"
     id="g3069"
     inkscape:groupmode="layer"
     sodipodi:insensitive="true">
    <rect
       y="4.5558057"
       x="51.148087"
       height="42"
       width="42"
       id="rect3071"
       style="fill:#808080;fill-opacity:1;stroke:none"
       rx="6"
       ry="6" />
    <rect
       y="4.4817624"
       x="-52.034225"
       height="42"
       width="42"
       id="rect3071-7"
       style="fill:#808080;fill-opacity:1;stroke:none;display:inline"
       rx="6"
       ry="6" />
    <rect
       style="fill:#ff4aff;fill-opacity:1;stroke:none"
       id="rect3091"
       width="26"
       height="20"
       x="11"
       y="20.459" />
    <path
       style="fill:#ff4aff;fill-opacity:1;stroke:none"
       d="m 24,7.1435081 c -5.522848,0 -10,4.4771529 -10,10.0000009 l 0,15.148809 3.809524,0 0,-15.148809 c 0,-3.418906 2.77157,-6.190477 6.190476,-6.190477 3.418906,0 6.190476,2.771571 6.190476,6.190477 l 0,15.148809 3.809524,0 0,-15.148809 C 34,11.620661 29.522848,7.1435081 24,7.1435081 z"
       id="path3861"
       inkscape:connector-curvature="0" />
  </g>
  <g
     style="display:none"
     inkscape:label="worlds - unselected"
     id="g3025"
     inkscape:groupmode="layer"
     sodipodi:insensitive="true">
    <path
       inkscape:connector-curvature="0"
       id="path3027"
       d="M 9,3 C 5.676,3 3,5.676 3,9 l 0,30 c 0,3.324 2.676,6 6,6 l 30,0 c 3.324,0 6,-2.676 6,-6 L 45,9 C 45,5.676 42.324,3 39,3 L 9,3 z m 15,4.53125 c 8.989536,0 16.28125,7.375105 16.28125,16.46875 0,9.092328 -7.291714,16.46875 -16.28125,16.46875 C 15.010462,40.46875 7.71875,33.092328 7.71875,24 7.71875,14.906355 15.010462,7.53125 24,7.53125 z M 25.0625,9.875 c 1.10895,1.133657 2.072958,2.280355 2.96875,3.5 1.073696,1.489801 1.920195,2.932487 2.6875,4.6875 0.717883,1.656834 1.353617,3.525105 1.78125,5.375 0.538332,-0.399301 1.019702,-0.778694 1.46875,-1.15625 1.353075,-1.18044 2.370314,-2.297253 3.0625,-3.4375 C 35.115134,13.897626 30.522906,10.30461 25.0625,9.875 z M 21.875,9.96875 c -1.087863,0.165715 -2.134327,0.471745 -3.125,0.875 -0.525811,1.300363 -0.908876,2.698872 -1.125,4.28125 -0.287936,1.83408 -0.431627,3.795938 -0.1875,6 0.243797,2.197141 0.773735,4.747791 1.59375,7.03125 0.103779,0.296181 0.225475,0.608421 0.34375,0.90625 0.652322,-0.08533 1.339062,-0.186938 2.03125,-0.34375 2.110494,-0.555792 4.550319,-1.397972 6.6875,-2.5 C 28.798785,25.853053 29.520303,25.440154 30.21875,25 29.788482,22.762993 29.072274,20.411125 28.28125,18.53125 27.400615,16.519592 26.352409,14.802863 25.21875,13.375 24.164162,12.004793 23.076197,10.891886 21.875,9.96875 z M 15.9375,12.375 c -3.615779,2.564814 -6,6.822848 -6,11.625 0,1.587647 0.273277,3.105036 0.75,4.53125 1.461466,0.438507 3.035792,0.67724 4.78125,0.71875 0.415443,0.0078 0.853617,0.0081 1.28125,0 -0.166374,-0.450036 -0.319176,-0.901572 -0.46875,-1.375 -0.593021,-1.886464 -1.013213,-4.059271 -1.1875,-5.9375 -0.200642,-1.91381 -0.173063,-3.563273 0.0625,-5.40625 0.148583,-1.380091 0.419178,-2.758698 0.78125,-4.15625 z m 21.84375,9.21875 c -1.544489,1.725361 -3.091287,3.188533 -4.6875,4.4375 -0.04841,0.03756 -0.07657,0.05784 -0.125,0.09375 0.133767,1.130034 0.17701,2.277718 0.15625,3.5 -0.02965,1.766542 -0.222832,3.637439 -0.5625,5.59375 C 35.869909,32.624283 38,28.557366 38,24 38,23.180313 37.913366,22.376208 37.78125,21.59375 z M 30.5625,27.75 c -0.779163,0.464863 -1.555926,0.87569 -2.40625,1.28125 -1.80542,0.802884 -3.847159,1.474003 -5.6875,1.90625 -0.72085,0.154515 -1.416058,0.28077 -2.09375,0.375 0.58215,1.18769 1.212891,2.317638 1.8125,3.25 1.010114,1.560303 2.021042,2.725681 3.09375,3.5625 1.620924,-0.150562 3.148474,-0.588453 4.5625,-1.25 0.436858,-1.189665 0.688952,-2.595094 0.8125,-4.28125 0.08993,-1.407437 0.05087,-3.13552 -0.09375,-4.84375 z m -18.71875,3.375 c 2.120047,3.677057 5.843292,6.29379 10.1875,6.90625 -1.358017,-1.622571 -2.49888,-3.232379 -3.4375,-4.84375 -0.331104,-0.566663 -0.607481,-1.109681 -0.875,-1.65625 -0.184495,0.007 -0.374053,0.02785 -0.5625,0.03125 -1.729645,0 -3.480397,-0.126823 -5.3125,-0.4375 z"
       style="fill:#808080;fill-opacity:1;stroke:none" />
  </g>
  <g
     style="display:none"
     inkscape:label="options - selected"
     id="g3077"
     inkscape:groupmode="layer"
     sodipodi:insensitive="true">
    <path
       style="opacity:0.5;fill:#000000;fill-opacity:1;stroke:none;filter:url(#filter3920)"
       d="M 9,3 C 5.676,3 3,5.676 3,9 l 0,30 c 0,3.324 2.676,6 6,6 l 30,0 c 3.324,0 6,-2.676 6,-6 L 45,9 C 45,5.676 42.324,3 39,3 L 9,3 z m 9.90625,5 3.25,3.5625 c 1.199064,-0.175393 2.455929,-0.18278 3.6875,0 L 29.09375,8 c 0.893012,0.2852103 1.76023,0.6337615 2.59375,1.0625 L 31.5,13.90625 c 0.972132,0.72376 1.854071,1.59398 2.59375,2.59375 l 4.84375,-0.1875 c 0.429332,0.832937 0.776686,1.700091 1.0625,2.59375 l -3.5625,3.25 c 0.175986,1.199111 0.182772,2.456496 0,3.6875 l 3.5625,3.25 c -0.286426,0.893658 -0.633167,1.7602 -1.0625,2.59375 L 34.09375,31.5 C 33.370631,32.47278 32.498505,33.352817 31.5,34.09375 l 0.1875,4.84375 C 30.853367,39.366849 29.986149,39.714176 29.09375,40 l -3.25,-3.5625 c -1.199065,0.176007 -2.457156,0.182781 -3.6875,0 L 18.90625,40 C 18.012626,39.714176 17.146018,39.367463 16.3125,38.9375 L 16.5,34.09375 C 15.527256,33.370605 14.646542,32.499769 13.90625,31.5 L 9.0625,31.6875 C 8.632554,30.85395 8.2851995,29.987408 8,29.09375 l 3.5625,-3.25 c -0.176,-1.199723 -0.183386,-2.457723 0,-3.6875 L 8,18.90625 C 8.2858128,18.012591 8.6331674,17.14605 9.0625,16.3125 L 13.90625,16.5 C 14.629982,15.527218 15.500268,14.647183 16.5,13.90625 L 16.3125,9.0625 C 17.146018,8.6331513 18.012012,8.2852103 18.90625,8 z m 5.125,12.375 c -0.471624,-0.0036 -0.943184,0.08958 -1.40625,0.28125 -1.852264,0.767922 -2.735416,2.865805 -1.96875,4.71875 0.767891,1.852947 2.866486,2.736057 4.71875,1.96875 1.85165,-0.767308 2.736642,-2.865804 1.96875,-4.71875 -0.574538,-1.38925 -1.897629,-2.239074 -3.3125,-2.25 z"
       id="rect3079"
       inkscape:connector-curvature="0" />
    <path
       inkscape:connector-curvature="0"
       style="fill:#ffffff;fill-opacity:1;stroke:none;display:inline"
       d="m 9.000002,3 c -3.324,0 -6,2.6760001 -6,5.9999997 L 3.000002,39 c 0,3.324 2.676,6 6,6 l 30,0 c 3.323996,0 5.999996,-2.676 5.999996,-6 l 0,-30.0000003 C 44.999998,5.6760001 42.323998,3 39.000002,3 l -30,0 z m 9.90625,4.9999997 3.25,3.5625003 c 1.199064,-0.175393 2.455929,-0.18278 3.6875,0 l 3.25,-3.5625003 c 0.893012,0.2852103 1.76023,0.6337615 2.59375,1.0625 l -0.1875,4.8437503 c 0.972132,0.72376 1.854071,1.59398 2.59375,2.59375 l 4.84375,-0.1875 c 0.429332,0.832937 0.776686,1.700091 1.0625,2.59375 l -3.5625,3.25 c 0.175986,1.199111 0.182772,2.456496 0,3.6875 l 3.5625,3.25 c -0.286426,0.893658 -0.633167,1.7602 -1.0625,2.59375 L 34.093752,31.5 c -0.723119,0.97278 -1.595245,1.852817 -2.59375,2.59375 l 0.1875,4.84375 C 30.853369,39.366849 29.986151,39.714176 29.093752,40 l -3.25,-3.5625 c -1.199065,0.176007 -2.457156,0.182781 -3.6875,0 l -3.25,3.5625 c -0.893624,-0.285824 -1.760232,-0.632537 -2.59375,-1.0625 l 0.1875,-4.84375 C 15.527258,33.370605 14.646544,32.499769 13.906252,31.5 l -4.84375,0.1875 c -0.429946,-0.83355 -0.7773,-1.700092 -1.0625,-2.59375 l 3.5625,-3.25 c -0.176,-1.199723 -0.183386,-2.457723 0,-3.6875 l -3.5625,-3.25 c 0.285813,-0.893659 0.633168,-1.7602 1.0625,-2.59375 l 4.84375,0.1875 c 0.723732,-0.972782 1.594018,-1.852817 2.59375,-2.59375 l -0.1875,-4.8437503 c 0.833518,-0.4293487 1.699512,-0.7772897 2.59375,-1.0625 z m 5.125,12.3750003 c -0.471624,-0.0036 -0.943184,0.08958 -1.40625,0.28125 -1.852264,0.767922 -2.735416,2.865805 -1.96875,4.71875 0.767891,1.852947 2.866486,2.736057 4.71875,1.96875 1.85165,-0.767308 2.736642,-2.865804 1.96875,-4.71875 -0.574538,-1.38925 -1.897629,-2.239074 -3.3125,-2.25 z"
       id="rect3079-2" />
  </g>
  <g
     inkscape:groupmode="layer"
     id="g3092"
     inkscape:label=" level private 2 - unselected"
     style="display:none"
     sodipodi:insensitive="true">
    <path
       style="fill:#808080;fill-opacity:1;stroke:none"
       d="M 9,3 C 5.676,3 3,5.676 3,9 l 0,30 c 0,3.324 2.676,6 6,6 l 30,0 c 3.324,0 6,-2.676 6,-6 L 45,9 C 45,5.676 42.324,3 39,3 L 9,3 z m 15,4.15625 c 5.522848,0 10,4.477152 10,10 l 0,3.3125 3,0 0,20 -26,0 0,-20 3,0 0,-3.3125 c 0,-5.522848 4.477152,-10 10,-10 z m 0,3.78125 c -3.418906,0 -6.1875,2.799844 -6.1875,6.21875 l 0,3.3125 12.375,0 0,-3.3125 C 30.1875,13.737344 27.418906,10.9375 24,10.9375 z"
       id="rect3094"
       inkscape:connector-curvature="0" />
  </g>
  <g
     style="display:none"
     inkscape:label=" level private 2 - selected"
     id="g3104"
     inkscape:groupmode="layer"
     sodipodi:insensitive="true">
    <path
       style="opacity:0.5;fill:#000000;fill-opacity:1;stroke:none;display:inline;filter:url(#filter3912)"
       d="M 9,3 C 5.676,3 3,5.6759998 3,8.9999998 L 3,39 c 0,3.324 2.676,6 6,6 l 30,0 c 3.324,0 6,-2.676 6,-6 L 45,8.9999998 C 45,5.6759998 42.324,3 39,3 L 9,3 z m 15,4.1562498 c 5.522848,0 10,4.4771522 10,10.0000002 l 0,3.3125 3,0 0,20 -26,0 0,-20 3,0 0,-3.3125 C 14,11.633402 18.477152,7.1562498 24,7.1562498 z M 24,10.9375 c -3.418906,0 -6.1875,2.799844 -6.1875,6.21875 l 0,3.3125 12.375,0 0,-3.3125 C 30.1875,13.737344 27.418906,10.9375 24,10.9375 z"
       id="rect3094-0"
       inkscape:connector-curvature="0" />
    <path
       inkscape:connector-curvature="0"
       id="path3106-0"
       d="M 9,3 C 5.676,3 3,5.6760001 3,9.0000002 L 3,39 c 0,3.324 2.676,6 6,6 l 30,0 c 3.324,0 6,-2.676 6,-6 L 45,9.0000002 C 45,5.6760001 42.324,3 39,3 L 9,3 z m 15,4.1562501 c 5.522848,0 10,4.4771519 10,9.9999999 l 0,3.3125 3,0 0,20 -26,0 0,-20 3,0 0,-3.3125 C 14,11.633402 18.477152,7.1562501 24,7.1562501 z M 24,10.9375 c -3.418906,0 -6.1875,2.799844 -6.1875,6.21875 l 0,3.3125 12.375,0 0,-3.3125 C 30.1875,13.737344 27.418906,10.9375 24,10.9375 z"
       style="fill:#ffffff;fill-opacity:1;stroke:none;display:inline" />
  </g>
  <g
     style="display:none"
     inkscape:label="stats - selected"
     id="g3772"
     inkscape:groupmode="layer"
     sodipodi:insensitive="true">
    <path
       style="opacity:0.5;fill:#000000;fill-opacity:1;stroke:none;filter:url(#filter3928)"
       d="M 9,3 C 5.676,3 3,5.676 3,9 l 0,30 c 0,3.324 2.676,6 6,6 l 30,0 c 3.324,0 6,-2.676 6,-6 L 45,9 C 45,5.676 42.324,3 39,3 L 9,3 z M 8,8 16,8 16,40 8,40 8,8 z m 12,16 8,0 0,16 -8,0 0,-16 z m 12,8 8,0 0,8 -8,0 0,-8 z"
       id="rect3774"
       inkscape:connector-curvature="0" />
    <path
       inkscape:connector-curvature="0"
       style="fill:#ffffff;fill-opacity:1;stroke:none;display:inline"
       d="m 9,2.9999999 c -3.324,0 -6,2.6760003 -6,5.9999993 L 3,39 c 0,3.324 2.676,6 6,6 l 30,0 c 3.324,0 6,-2.676 6,-6 L 45,8.9999992 C 45,5.6760002 42.324,2.9999999 39,2.9999999 l -30,0 z m -1,4.9999993 8,0 L 16,40 8,40 8,7.9999992 z m 12,15.9999998 7.999999,0 0,16.000001 L 20,40 20,23.999999 z M 32.000001,32 40,32 l 0,8 -7.999999,0 0,-8 z"
       id="rect3774-8" />
  </g>
  <g
     inkscape:groupmode="layer"
     id="g3101"
     inkscape:label="stats - unselected"
     style="display:none"
     sodipodi:insensitive="true">
    <path
       inkscape:connector-curvature="0"
       id="path3103"
       d="M 9,3 C 5.676,3 3,5.676 3,9 l 0,30 c 0,3.324 2.676,6 6,6 l 30,0 c 3.324,0 6,-2.676 6,-6 L 45,9 C 45,5.676 42.324,3 39,3 L 9,3 z M 8,8 16,8 16,40 8,40 8,8 z m 12,16 8,0 0,16 -8,0 0,-16 z m 12,8 8,0 0,8 -8,0 0,-8 z"
       style="fill:#808080;fill-opacity:1;stroke:none" />
  </g>
  <g
     style="display:none"
     inkscape:label="account - unselected"
     id="g3875"
     inkscape:groupmode="layer"
     sodipodi:insensitive="true">
    <path
       style="fill:#808080;fill-opacity:1;stroke:none"
       d="M 9,3 C 5.676,3 3,5.676 3,9 l 0,30 c 0,3.324 2.676,6 6,6 l 30,0 c 3.324,0 6,-2.676 6,-6 L 45,9 C 45,5.676 42.324,3 39,3 L 9,3 z m 15,7.78125 c 4.473506,0 8.09375,3.620244 8.09375,8.09375 0,4.473506 -3.620244,8.09375 -8.09375,8.09375 -4.473506,0 -8.09375,-3.620244 -8.09375,-8.09375 0,-4.473506 3.620244,-8.09375 8.09375,-8.09375 z M 15.5,24.75 c 1.759694,2.860277 4.895431,4.78125 8.5,4.78125 3.604569,0 6.740306,-1.920973 8.5,-4.78125 4.143548,3.263308 7.016172,8.820429 7.4375,15.25 L 8.0625,40 C 8.4838278,33.570429 11.356452,28.013308 15.5,24.75 z"
       id="path3877"
       inkscape:connector-curvature="0" />
  </g>
  <g
     inkscape:groupmode="layer"
     id="g3972"
     inkscape:label="account - selected"
     style="display:none"
     sodipodi:insensitive="true">
    <path
       inkscape:connector-curvature="0"
       id="path3974"
       d="M 9,3 C 5.676,3 3,5.676 3,9 l 0,30 c 0,3.324 2.676,6 6,6 l 30,0 c 3.324,0 6,-2.676 6,-6 L 45,9 C 45,5.676 42.324,3 39,3 L 9,3 z m 15,7.78125 c 4.473506,0 8.09375,3.620244 8.09375,8.09375 0,4.473506 -3.620244,8.09375 -8.09375,8.09375 -4.473506,0 -8.09375,-3.620244 -8.09375,-8.09375 0,-4.473506 3.620244,-8.09375 8.09375,-8.09375 z M 15.5,24.75 c 1.759694,2.860277 4.895431,4.78125 8.5,4.78125 3.604569,0 6.740306,-1.920973 8.5,-4.78125 4.143548,3.263308 7.016172,8.820429 7.4375,15.25 L 8.0625,40 C 8.4838278,33.570429 11.356452,28.013308 15.5,24.75 z"
       style="opacity:0.5;fill:#000000;fill-opacity:1;stroke:none;filter:url(#filter3976)" />
    <path
       style="fill:#ffffff;fill-opacity:1;stroke:none;display:inline"
       d="M 9,3 C 5.676,3 3,5.676 3,9 l 0,30 c 0,3.324 2.676,6 6,6 l 30,0 c 3.324,0 6,-2.676 6,-6 L 45,9 C 45,5.676 42.324,3 39,3 L 9,3 z m 15,7.78125 c 4.473506,0 8.09375,3.620245 8.09375,8.093751 0,4.473506 -3.620244,8.09375 -8.09375,8.09375 -4.473506,0 -8.09375,-3.620244 -8.09375,-8.09375 0,-4.473506 3.620244,-8.093751 8.09375,-8.093751 z m -8.5,13.968751 c 1.759694,2.860277 4.895431,4.78125 8.5,4.78125 3.604569,0 6.740306,-1.920973 8.5,-4.78125 C 36.643548,28.013309 39.516172,33.570429 39.9375,40 L 8.0625,40 C 8.483828,33.570429 11.356452,28.013309 15.5,24.750001 z"
       id="path3877-1"
       inkscape:connector-curvature="0" />
  </g>
  <g
     inkscape:groupmode="layer"
     id="layer1"
     inkscape:label="Warstwa"
     style="display:none"
     sodipodi:insensitive="true">
    <g
       id="g3940">
      <path
         sodipodi:nodetypes="ccccsc"
         inkscape:connector-curvature="0"
         id="path3883"
         d="M 15.5,24.75 C 11.356452,28.013308 8.4838278,33.570429 8.0625,40 l 31.875,0 C 39.516172,33.570429 36.643548,28.013308 32.5,24.75 c -1.759694,2.860277 -4.895431,4.78125 -8.5,4.78125 -3.604569,0 -6.740306,-1.920973 -8.5,-4.78125 z"
         style="fill:#803a80;fill-opacity:1;stroke:none" />
      <path
         transform="matrix(0.88882701,0,0,0.98309655,0.25479642,0.04094449)"
         d="m 35.828348,19.162548 a 9.1131344,8.2392721 0 1 1 -18.226269,0 9.1131344,8.2392721 0 1 1 18.226269,0 z"
         sodipodi:ry="8.2392721"
         sodipodi:rx="9.1131344"
         sodipodi:cy="19.162548"
         sodipodi:cx="26.715214"
         id="path3885-5"
         style="fill:#803a80;fill-opacity:1;stroke:none;display:inline"
         sodipodi:type="arc" />
    </g>
  </g>
  <g
     style="display:none"
     inkscape:label="news - unselected"
     id="g3048"
     inkscape:groupmode="layer"
     sodipodi:insensitive="true">
    <path
       style="fill:#808080;fill-opacity:1;stroke:none"
       d="M 9,3 C 5.676,3 3,5.676 3,9 l 0,30 c 0,3.324 2.676,6 6,6 l 30,0 c 3.324,0 6,-2.676 6,-6 L 45,9 C 45,5.676 42.324,3 39,3 L 9,3 z M 23.96875,8 A 0.98753189,1.0128282 0 0 1 24.8125,8.46875 L 28.75,14.75 35.90625,13.9375 a 0.98753189,1.0128282 0 0 1 1.0625,1.34375 l -2.40625,7.03125 5.125,5.25 a 0.98753189,1.0128282 0 0 1 -0.375,1.6875 l -6.8125,2.5 -0.875,7.34375 a 0.98753189,1.0128282 0 0 1 -1.46875,0.75 L 24,35.90625 l -6.1875,3.9375 a 0.98753189,1.0128282 0 0 1 -1.46875,-0.75 L 15.5,31.6875 8.65625,29.21875 A 0.98753189,1.0128282 0 0 1 8.3125,27.5625 L 13.4375,22.28125 11.03125,15.25 a 0.98753189,1.0128282 0 0 1 0.1875,-0.96875 0.98753189,1.0128282 0 0 1 0.875,-0.34375 L 19.28125,14.75 23.1875,8.4375 A 0.98753189,1.0128282 0 0 1 23.96875,8 z"
       id="rect3050"
       inkscape:connector-curvature="0" />
  </g>
  <g
     inkscape:groupmode="layer"
     id="g3109"
     inkscape:label="news - selected"
     style="display:inline"
     sodipodi:insensitive="true">
    <path
       inkscape:connector-curvature="0"
       id="path3111"
       d="M 9,3 C 5.676,3 3,5.676 3,9 l 0,30 c 0,3.324 2.676,6 6,6 l 30,0 c 3.324,0 6,-2.676 6,-6 L 45,9 C 45,5.676 42.324,3 39,3 L 9,3 z M 23.96875,8 A 0.98753189,1.0128282 0 0 1 24.8125,8.46875 L 28.75,14.75 35.90625,13.9375 a 0.98753189,1.0128282 0 0 1 1.0625,1.34375 l -2.40625,7.03125 5.125,5.25 a 0.98753189,1.0128282 0 0 1 -0.375,1.6875 l -6.8125,2.5 -0.875,7.34375 a 0.98753189,1.0128282 0 0 1 -1.46875,0.75 L 24,35.90625 l -6.1875,3.9375 a 0.98753189,1.0128282 0 0 1 -1.46875,-0.75 L 15.5,31.6875 8.65625,29.21875 A 0.98753189,1.0128282 0 0 1 8.3125,27.5625 L 13.4375,22.28125 11.03125,15.25 a 0.98753189,1.0128282 0 0 1 0.1875,-0.96875 0.98753189,1.0128282 0 0 1 0.875,-0.34375 L 19.28125,14.75 23.1875,8.4375 A 0.98753189,1.0128282 0 0 1 23.96875,8 z"
       style="opacity:0.5;fill:#000000;fill-opacity:1;stroke:none;filter:url(#filter3881)" />
    <path
       style="fill:#ffffff;fill-opacity:1;stroke:none;display:inline"
       d="M 9,3 C 5.676,3 3,5.676 3,9 l 0,30 c 0,3.324 2.676,6 6,6 l 30,0 c 3.324,0 6,-2.676 6,-6 L 45,9 C 45,5.676 42.324,3 39,3 L 9,3 z M 23.96875,8 A 0.98753189,1.0128282 0 0 1 24.8125,8.46875 L 28.75,14.75 35.90625,13.9375 a 0.98753189,1.0128282 0 0 1 1.0625,1.34375 l -2.40625,7.03125 5.125,5.25 a 0.98753189,1.0128282 0 0 1 -0.375,1.6875 l -6.8125,2.5 -0.875,7.34375 a 0.98753189,1.0128282 0 0 1 -1.46875,0.75 L 24,35.90625 l -6.1875,3.9375 a 0.98753189,1.0128282 0 0 1 -1.46875,-0.75 L 15.5,31.6875 8.65625,29.21875 A 0.98753189,1.0128282 0 0 1 8.3125,27.5625 L 13.4375,22.28125 11.03125,15.25 a 0.98753189,1.0128282 0 0 1 0.1875,-0.96875 0.98753189,1.0128282 0 0 1 0.875,-0.34375 L 19.28125,14.75 23.1875,8.4375 A 0.98753189,1.0128282 0 0 1 23.96875,8 z"
       id="rect3050-5"
       inkscape:connector-curvature="0" />
  </g>
</svg>
